<?xml version="1.0" standalone="no"?>
<!DOCTYPE svg PUBLIC "-//W3C//DTD SVG 20010904//EN"
 "http://www.w3.org/TR/2001/REC-SVG-20010904/DTD/svg10.dtd">
<svg version="1.0" xmlns="http://www.w3.org/2000/svg"
 width="180.000000pt" height="180.000000pt" viewBox="0 0 180.000000 180.000000"
 preserveAspectRatio="xMidYMid meet">
<metadata>
Created by potrace 1.16, written by Peter Selinger 2001-2019
</metadata>
<g transform="translate(0.000000,180.000000) scale(0.100000,-0.100000)"
fill="#000000" stroke="none">
<path d="M50 1750 l-50 -49 0 -801 0 -801 50 -49 49 -50 801 0 801 0 49 50 50
49 0 801 0 801 -50 49 -49 50 -801 0 -801 0 -49 -50z m1447 -491 c53 -26 105
-88 125 -147 8 -24 13 -132 15 -319 l4 -283 -100 0 -100 0 -3 263 c-3 296 -5
301 -81 332 -51 20 -92 14 -169 -27 l-58 -31 0 -268 0 -269 -100 0 -100 0 0
375 0 375 53 0 c49 0 53 -3 80 -40 l28 -40 32 24 c115 86 267 108 374 55z
m-713 -21 c3 -13 6 -40 6 -60 0 -32 -21 -64 -175 -265 -96 -125 -175 -231
-175 -235 0 -5 79 -8 175 -8 l174 0 5 -32 c3 -18 7 -54 10 -81 l6 -47 -312 2
-312 3 -12 50 -13 49 82 110 c45 61 124 167 176 236 l93 125 -145 3 c-163 3
-147 -5 -167 87 -6 28 -13 58 -16 68 -5 16 14 17 294 17 l300 0 6 -22z"/>
</g>
</svg>
